<svg xmlns="http://www.w3.org/2000/svg" viewBox="0 0 256 137">
  <g>
    <g>
      <path d="M119.6018,5.3364A75.2929,75.2929,0,0,0,82.6136,56.464,75.27,75.27,0,0,1,53.886,9.76a75.436,75.436,0,0,1,65.7158-4.4236Z" fill="#618c35"/>
      <g>
        <path d="M198.581,7.8631c-.724-.2678-1.4552-.5212-2.1865-.7529l-.0072-.0072a75.3208,75.3208,0,0,0-97.419,58.7656,74.1776,74.1776,0,0,1-8.3692-4.1268A75.3485,75.3485,0,0,1,194.3964,5.9084c.0072,0,.0072.0072.0144.0072Q196.5285,6.817,198.581,7.8631Z" fill="#94bf36"/>
        <path d="M202.114,9.76c-.0217.0723-.0289.152-.0434.2244-.5792-.0869-1.1656-.1738-1.752-.2389h-.0073a75.3137,75.3137,0,0,0-83.7285,61.0679,73.0555,73.0555,0,0,1-8.9484-1.9331A75.389,75.389,0,0,1,198.3493,8.3772a.0071.0071,0,0,1,.0073.0072c.76.1665,1.52.3475,2.266.543C201.1222,9.1953,201.6217,9.4776,202.114,9.76Z" fill="#94bf36"/>
        <path d="M201.8389,11.1862c-.1231.6009-.2461,1.2018-.3837,1.7955a75.8086,75.8086,0,0,0-15.3918,3.1493,75.2485,75.2485,0,0,0-50.8091,55.1964q-3.5838.3474-7.2543.3475c-.7385,0-1.4769-.0072-2.2154-.0362a75.3741,75.3741,0,0,1,76.0543-60.4525Z" fill="#94bf36"/>
        <path d="M200.84,15.5011q-.4562,1.7811-1.0135,3.5186c-1.3394.5213-2.6788,1.0787-4.0037,1.6869A75.1643,75.1643,0,0,0,155.2362,66.6a74.841,74.841,0,0,1-10.2154,3.142A75.5052,75.5052,0,0,1,200.84,15.5011Z" fill="#94bf36"/>
        <path d="M198.0091,24.1527A75.5323,75.5323,0,0,1,166.2624,61.235,74.9345,74.9345,0,0,1,198.0091,24.1527Z" fill="#94bf36"/>
      </g>
    </g>
    <g>
      <path d="M24.3076,121.3176H10.0218L7.2967,127.97H0L13.7141,96.9274h7.0335L34.5054,127.97h-7.472Zm-2.2415-5.4545-4.8792-11.8847-4.8793,11.8847Z" fill="#94bf36"/>
      <path d="M61.4071,104.1119V123.978q0,6.5631-3.3847,9.7563t-9.89,3.1931a24.5622,24.5622,0,0,1-6.5054-.8423,14.1635,14.1635,0,0,1-5.0989-2.44l2.7251-4.9665a11.1671,11.1671,0,0,0,3.78,1.9733,14.9129,14.9129,0,0,0,4.5716.7319q3.56,0,5.2528-1.619a6.4867,6.4867,0,0,0,1.692-4.9v-1.02a9.5531,9.5531,0,0,1-7.4727,2.9709,12.4523,12.4523,0,0,1-5.956-1.4407,10.9172,10.9172,0,0,1-4.2855-4.0578,12.2841,12.2841,0,0,1,0-12.0623,10.932,10.932,0,0,1,4.2855-4.0578,12.4684,12.4684,0,0,1,5.956-1.4407q5.1435,0,7.8247,3.414v-3.0589Zm-8.5058,15.41a6.0335,6.0335,0,0,0,0-8.4707,6.2856,6.2856,0,0,0-4.4614-1.6182,6.3638,6.3638,0,0,0-4.4837,1.6182,5.9814,5.9814,0,0,0,0,8.4707A6.3575,6.3575,0,0,0,48.44,121.14,6.2794,6.2794,0,0,0,52.9013,119.5218Z" fill="#94bf36"/>
      <path d="M77.6489,104.6432a12.2319,12.2319,0,0,1,4.8134-.8864v6.3856q-1.144-.0877-1.5389-.0888a6.2533,6.2533,0,0,0-4.6153,1.6629,6.7562,6.7562,0,0,0-1.67,4.9889V127.97H67.7809V104.1119H74.33V107.26A7.6332,7.6332,0,0,1,77.6489,104.6432Z" fill="#94bf36"/>
      <path d="M90.88,126.75a11.6325,11.6325,0,0,1-4.6375-4.3682,12.872,12.872,0,0,1,0-12.683A11.6453,11.6453,0,0,1,90.88,105.331a15.0117,15.0117,0,0,1,13.3843,0,11.6879,11.6879,0,0,1,4.6153,4.3675,12.872,12.872,0,0,1,0,12.683,11.6751,11.6751,0,0,1-4.6153,4.3682,15.0057,15.0057,0,0,1-13.3843,0Zm11.0327-5.8977a7.6853,7.6853,0,0,0,0-9.6234,5.6883,5.6883,0,0,0-4.33-1.7957,5.7582,5.7582,0,0,0-4.3513,1.7957,7.61,7.61,0,0,0,0,9.6234,5.7554,5.7554,0,0,0,4.3513,1.7958A5.6856,5.6856,0,0,0,101.9128,120.852Z" fill="#94bf36"/>
      <path d="M115.6055,96.9274h7.1207V127.97h-7.1207Z" fill="#57534e"/>
      <path d="M151.0116,106.4173q2.7032,2.6612,2.7036,7.8933V127.97h-6.8574V115.3752a6.26,6.26,0,0,0-1.2306-4.2346,4.4946,4.4946,0,0,0-3.5607-1.3974,5.4325,5.4325,0,0,0-4.1316,1.6182,6.7383,6.7383,0,0,0-1.5389,4.8121V127.97h-6.8567V104.1119h6.549v2.7933a9.1048,9.1048,0,0,1,3.3847-2.3284,11.71,11.71,0,0,1,4.44-.82A9.6828,9.6828,0,0,1,151.0116,106.4173Z" fill="#57534e"/>
      <path d="M162.1108,127.5927a14.9655,14.9655,0,0,1-4.4836-1.84l2.2858-4.9673a14.2229,14.2229,0,0,0,3.824,1.663,15.8713,15.8713,0,0,0,4.3956.6438q4.3517,0,4.352-2.1733a1.5358,1.5358,0,0,0-1.1869-1.463,17.4369,17.4369,0,0,0-3.6487-.7542,34.9323,34.9323,0,0,1-4.7913-1.02,7.4175,7.4175,0,0,1-3.2745-2.04,5.8343,5.8343,0,0,1-1.3844-4.169,6.566,6.566,0,0,1,1.2964-4.0131,8.3434,8.3434,0,0,1,3.78-2.7268,16.0129,16.0129,0,0,1,5.868-.9759,22.8454,22.8454,0,0,1,4.9894.5543,13.8836,13.8836,0,0,1,4.1095,1.53l-2.2858,4.9225a13.5553,13.5553,0,0,0-6.8131-1.7741,6.8713,6.8713,0,0,0-3.2967.6207,1.8262,1.8262,0,0,0-1.0989,1.5966,1.5822,1.5822,0,0,0,1.1869,1.5518,20.84,20.84,0,0,0,3.78.843,40.0506,40.0506,0,0,1,4.7469,1.0423,7.1181,7.1181,0,0,1,3.2088,2.0173,5.7561,5.7561,0,0,1,1.3629,4.08,6.3359,6.3359,0,0,1-1.3186,3.9467,8.4183,8.4183,0,0,1-3.8462,2.6821,16.9951,16.9951,0,0,1-6,.9542A22.7693,22.7693,0,0,1,162.1108,127.5927Z" fill="#57534e"/>
      <path d="M203.2311,105.287a10.94,10.94,0,0,1,4.2418,4.301,14.2961,14.2961,0,0,1,0,12.9046,10.9462,10.9462,0,0,1-4.2418,4.3018,11.9677,11.9677,0,0,1-6,1.53,9.0919,9.0919,0,0,1-7.1214-2.8828V136.573h-6.8567V104.1119h6.5491V106.86q2.5486-3.1029,7.429-3.1036A11.9605,11.9605,0,0,1,203.2311,105.287Zm-2.8568,15.565a7.6877,7.6877,0,0,0,0-9.6234,6.1179,6.1179,0,0,0-8.66,0,7.6853,7.6853,0,0,0,0,9.6234,6.1176,6.1176,0,0,0,8.66,0Z" fill="#57534e"/>
      <path d="M236.6146,117.9916h-17.89a5.6215,5.6215,0,0,0,2.2858,3.5035,7.5205,7.5205,0,0,0,4.4836,1.2862,9.0056,9.0056,0,0,0,3.2746-.5543,7.9293,7.9293,0,0,0,2.6592-1.7524l3.6487,3.9914q-3.3407,3.8586-9.7585,3.8586a15.3159,15.3159,0,0,1-7.0771-1.5749,11.4688,11.4688,0,0,1-4.7469-4.3682,12.1116,12.1116,0,0,1-1.6705-6.3415,12.2757,12.2757,0,0,1,1.6484-6.3184,11.5973,11.5973,0,0,1,4.5272-4.3906,13.9106,13.9106,0,0,1,12.7254-.0671,10.9664,10.9664,0,0,1,4.4179,4.3241,12.986,12.986,0,0,1,1.6047,6.5415Q236.747,116.2615,236.6146,117.9916ZM220.571,110.32a5.68,5.68,0,0,0-1.9345,3.6363h11.6487a5.6443,5.6443,0,0,0-5.8022-4.9665A5.87,5.87,0,0,0,220.571,110.32Z" fill="#57534e"/>
      <path d="M251.1866,104.6432A12.2319,12.2319,0,0,1,256,103.7568v6.3856q-1.144-.0877-1.5389-.0888a6.2533,6.2533,0,0,0-4.6153,1.6629,6.7562,6.7562,0,0,0-1.6705,4.9889V127.97h-6.8567V104.1119h6.5491V107.26A7.6332,7.6332,0,0,1,251.1866,104.6432Z" fill="#57534e"/>
    </g>
  </g>
</svg>
